<?xml version="1.0" encoding="UTF-8"?>
<svg width="25px" height="34px" viewBox="0 0 25 34" version="1.1" xmlns="http://www.w3.org/2000/svg" xmlns:xlink="http://www.w3.org/1999/xlink">
    <title>起点</title>
    <g id="行程" stroke="none" stroke-width="1" fill="none" fill-rule="evenodd">
        <g id="规则备份" transform="translate(-1035.000000, -750.000000)">
            <g id="编组" transform="translate(1027.000000, 747.000000)">
                <g id="编组-20备份-3" transform="translate(8.000000, 3.000000)">
                    <ellipse id="椭圆形" fill="#C7CBD0" cx="12.5" cy="31.1875" rx="7.31818182" ry="2.5"></ellipse>
                    <ellipse id="椭圆形" fill="#8B939E" cx="12.5636364" cy="31.1875" rx="3.2" ry="1.5"></ellipse>
                    <path d="M12.5,0 C19.4035594,0 25,5.54705031 25,12.3896836 C25,15.8072271 23.6039742,18.9015888 21.3463158,21.1430917 C15.2383572,28.2574811 12.5,32 12.5,32 C12.5,32 10.2678969,28.0414517 3.04221044,20.5272909 C3.04432,20.528577 3.0557011,20.5298057 3.07593917,20.5309789 C1.16080992,18.3536783 0,15.5060455 0,12.3896836 C0,5.54705031 5.59644063,0 12.5,0 Z" id="形状结合" fill="#1A6AFF"></path>
                    <circle id="椭圆形" fill="#FFFFFF" cx="12.5" cy="12.5" r="10.5"></circle>
                    <g id="起" transform="translate(7.456000, 7.172000)" fill="#1A6AFF" fill-rule="nonzero">
                        <path d="M10.824,6.504 L10.008,6.228 C9.96,6.924 9.9,7.392 9.816,7.62 C9.708,7.872 9.48,8.004 9.144,8.004 L7.512,8.004 C7.176,7.992 7.008,7.824 7.008,7.5 L7.008,4.74 L10.248,4.74 L10.248,0.792 L5.94,0.792 L5.94,1.596 L9.408,1.596 L9.408,3.912 L6.144,3.912 L6.144,7.812 C6.144,8.496 6.48,8.844 7.164,8.844 L9.3,8.844 C9.864,8.844 10.236,8.688 10.416,8.4 C10.608,8.112 10.752,7.476 10.824,6.504 Z M0.996,5.736 C0.936,7.476 0.6,9.048 0,10.44 L0.66,11.028 C0.972,10.332 1.212,9.588 1.404,8.784 C1.86,9.504 2.4,10.02 3.012,10.308 C3.708,10.632 5.472,10.8 8.28,10.8 L10.92,10.8 L11.064,9.96 C10.416,9.996 9.42,10.02 8.088,10.02 C5.892,10.02 4.416,9.912 3.672,9.708 L3.672,7.452 L5.376,7.452 L5.376,6.66 L3.672,6.66 L3.672,4.968 L5.52,4.968 L5.52,4.176 L3.444,4.176 L3.444,2.412 L5.364,2.412 L5.364,1.62 L3.444,1.62 L3.444,0 L2.58,0 L2.58,1.62 L0.6,1.62 L0.6,2.412 L2.58,2.412 L2.58,4.176 L0.384,4.176 L0.384,4.968 L2.844,4.968 L2.844,9.3 C2.364,8.964 1.956,8.46 1.596,7.788 C1.692,7.164 1.752,6.516 1.776,5.832 L0.996,5.736 Z" id="形状"></path>
                    </g>
                </g>
            </g>
        </g>
    </g>
</svg>