<?xml version="1.0" encoding="UTF-8"?>
<svg width="25px" height="34px" viewBox="0 0 25 34" version="1.1" xmlns="http://www.w3.org/2000/svg" xmlns:xlink="http://www.w3.org/1999/xlink">
    <title>起点备份 5</title>
    <g id="行程" stroke="none" stroke-width="1" fill="none" fill-rule="evenodd">
        <g id="规则备份" transform="translate(-1285.000000, -750.000000)">
            <g id="编组" transform="translate(1277.000000, 747.000000)">
                <g id="编组-20备份-4" transform="translate(8.000000, 3.000000)">
                    <ellipse id="椭圆形" fill="#C7CBD0" cx="12.5" cy="31.1875" rx="7.31818182" ry="2.5"></ellipse>
                    <ellipse id="椭圆形" fill="#8B939E" cx="12.5636364" cy="31.1875" rx="3.2" ry="1.5"></ellipse>
                    <path d="M12.5,0 C19.4035594,0 25,5.54705031 25,12.3896836 C25,15.8072271 23.6039742,18.9015888 21.3463158,21.1430917 C15.2383572,28.2574811 12.5,32 12.5,32 C12.5,32 10.2678969,28.0414517 3.04221044,20.5272909 C3.04432,20.528577 3.0557011,20.5298057 3.07593917,20.5309789 C1.16080992,18.3536783 0,15.5060455 0,12.3896836 C0,5.54705031 5.59644063,0 12.5,0 Z" id="形状结合" fill="#F44436"></path>
                    <circle id="椭圆形" fill="#FFFFFF" cx="12.5" cy="12.5" r="10.5"></circle>
                    <g id="讫" transform="translate(7.528000, 7.124000)" fill="#F44436" fill-rule="nonzero">
                        <path d="M5.304,2.484 L10.764,2.484 L10.764,1.644 L5.772,1.644 C6,1.188 6.216,0.708 6.432,0.18 L5.616,0 C5.016,1.488 4.26,2.7 3.324,3.624 L3.888,4.284 C4.404,3.756 4.872,3.156 5.304,2.484 Z M4.632,4.32 L4.632,5.124 L8.496,5.124 C7.608,5.928 6.876,6.66 6.276,7.32 C5.592,8.076 5.136,8.64 4.896,9 C4.668,9.312 4.548,9.588 4.548,9.84 C4.548,10.536 4.956,10.884 5.796,10.884 L8.976,10.884 C9.6,10.872 10.068,10.74 10.38,10.476 C10.692,10.212 10.896,9.42 11.004,8.088 L10.212,7.8 C10.128,8.916 9.996,9.576 9.828,9.78 C9.648,9.984 9.36,10.092 8.976,10.092 L5.988,10.092 C5.652,10.092 5.496,9.948 5.496,9.684 C5.496,9.54 5.592,9.312 5.808,9.012 C6.024,8.676 6.42,8.22 6.996,7.632 C7.644,6.936 8.532,6.084 9.672,5.076 L9.672,4.32 L4.632,4.32 Z M1.356,0.192 L0.756,0.78 C1.62,1.428 2.316,2.052 2.82,2.64 L3.408,2.04 C2.856,1.416 2.172,0.804 1.356,0.192 Z M0,3.744 L0,4.572 L1.716,4.572 L1.716,9.348 C1.716,9.54 1.62,9.72 1.44,9.876 L1.776,10.656 C2.616,10.104 3.42,9.468 4.164,8.772 L3.924,7.848 C3.432,8.328 2.976,8.736 2.544,9.084 L2.544,3.744 L0,3.744 Z" id="形状"></path>
                    </g>
                </g>
            </g>
        </g>
    </g>
</svg>